<?xml version="1.0" standalone="no"?>
<!DOCTYPE svg PUBLIC "-//W3C//DTD SVG 20010904//EN"
 "http://www.w3.org/TR/2001/REC-SVG-20010904/DTD/svg10.dtd">
<svg version="1.0" xmlns="http://www.w3.org/2000/svg"
 width="42.000000pt" height="41.000000pt" viewBox="0 0 42.000000 41.000000"
 preserveAspectRatio="xMidYMid meet">
<metadata>
Created by potrace 1.15, written by Peter Selinger 2001-2017
</metadata>
<g transform="translate(0.000000,41.000000) scale(0.100000,-0.100000)"
fill="#000000" stroke="none">
<path d="M105 398 c-32 -17 -76 -61 -91 -90 -22 -42 -19 -175 5 -214 26 -43
80 -83 122 -90 l34 -6 -41 26 c-23 14 -49 38 -59 52 -23 36 -36 82 -24 89 5 4
9 15 9 26 0 62 60 106 127 95 125 -20 128 -20 151 9 30 38 28 59 -9 89 -28 24
-38 26 -117 26 -48 0 -96 -6 -107 -12z"/>
</g>
</svg>
